<svg width="58" height="72" viewBox="0 0 58 72" fill="none" xmlns="http://www.w3.org/2000/svg">
<path d="M5.95772 29.8197L28.875 0.806649L51.7923 29.8197C60.7687 41.1837 58.4445 57.0822 46.4939 65.8316C36.171 73.3894 21.579 73.3894 11.2561 65.8316C-0.694452 57.0822 -3.01867 41.1837 5.95772 29.8197Z" fill="#F9FCFF" stroke="#E6E8F3"/>
<path d="M25.094 47.21H19.622L18.614 50H16.886L21.422 37.526H23.312L27.83 50H26.102L25.094 47.21ZM24.626 45.878L22.358 39.542L20.09 45.878H24.626ZM39.1669 44.114H35.3329V48.002H33.8029V44.114H29.9869V42.728H33.8029V38.822H35.3329V42.728H39.1669V44.114Z" fill="#161B46"/>
</svg>
