<svg width="59" height="72" viewBox="0 0 59 72" fill="none" xmlns="http://www.w3.org/2000/svg">
<path d="M6.70772 29.8197L29.625 0.806649L52.5423 29.8197C61.5187 41.1837 59.1945 57.0822 47.2439 65.8316C36.921 73.3894 22.329 73.3894 12.0061 65.8316C0.0555484 57.0822 -2.26867 41.1837 6.70772 29.8197Z" fill="#F9FCFF" stroke="#E6E8F3"/>
<path d="M22.011 47.21H16.539L15.531 50H13.803L18.339 37.526H20.229L24.747 50H23.019L22.011 47.21ZM21.543 45.878L19.275 39.542L17.007 45.878H21.543ZM33.0059 43.538C33.4619 43.61 33.8759 43.796 34.2479 44.096C34.6319 44.396 34.9319 44.768 35.1479 45.212C35.3759 45.656 35.4899 46.13 35.4899 46.634C35.4899 47.27 35.3279 47.846 35.0039 48.362C34.6799 48.866 34.2059 49.268 33.5819 49.568C32.9699 49.856 32.2439 50 31.4039 50H26.7239V37.454H31.2239C32.0759 37.454 32.8019 37.598 33.4019 37.886C34.0019 38.162 34.4519 38.54 34.7519 39.02C35.0519 39.5 35.2019 40.04 35.2019 40.64C35.2019 41.384 34.9979 42.002 34.5899 42.494C34.1939 42.974 33.6659 43.322 33.0059 43.538ZM28.3619 42.872H31.1159C31.8839 42.872 32.4779 42.692 32.8979 42.332C33.3179 41.972 33.5279 41.474 33.5279 40.838C33.5279 40.202 33.3179 39.704 32.8979 39.344C32.4779 38.984 31.8719 38.804 31.0799 38.804H28.3619V42.872ZM31.2599 48.65C32.0759 48.65 32.7119 48.458 33.1679 48.074C33.6239 47.69 33.8519 47.156 33.8519 46.472C33.8519 45.776 33.6119 45.23 33.1319 44.834C32.6519 44.426 32.0099 44.222 31.2059 44.222H28.3619V48.65H31.2599ZM44.603 42.71V44.096H37.421V42.71H44.603Z" fill="#161B46"/>
</svg>
