<svg width="58" height="72" viewBox="0 0 58 72" fill="none" xmlns="http://www.w3.org/2000/svg">
<path d="M5.95772 29.8197L28.875 0.806649L51.7923 29.8197C60.7687 41.1837 58.4445 57.0822 46.4939 65.8316C36.171 73.3894 21.579 73.3894 11.2561 65.8316C-0.694452 57.0822 -3.01867 41.1837 5.95772 29.8197Z" fill="#F9FCFF" stroke="#E6E8F3"/>
<path d="M20.0745 47.21H14.6025L13.5945 50H11.8665L16.4025 37.526H18.2925L22.8105 50H21.0825L20.0745 47.21ZM19.6065 45.878L17.3385 39.542L15.0705 45.878H19.6065ZM31.0694 43.538C31.5254 43.61 31.9394 43.796 32.3114 44.096C32.6954 44.396 32.9954 44.768 33.2114 45.212C33.4394 45.656 33.5534 46.13 33.5534 46.634C33.5534 47.27 33.3914 47.846 33.0674 48.362C32.7434 48.866 32.2694 49.268 31.6454 49.568C31.0334 49.856 30.3074 50 29.4674 50H24.7874V37.454H29.2874C30.1394 37.454 30.8654 37.598 31.4654 37.886C32.0654 38.162 32.5154 38.54 32.8154 39.02C33.1154 39.5 33.2654 40.04 33.2654 40.64C33.2654 41.384 33.0614 42.002 32.6534 42.494C32.2574 42.974 31.7294 43.322 31.0694 43.538ZM26.4254 42.872H29.1794C29.9474 42.872 30.5414 42.692 30.9614 42.332C31.3814 41.972 31.5914 41.474 31.5914 40.838C31.5914 40.202 31.3814 39.704 30.9614 39.344C30.5414 38.984 29.9354 38.804 29.1434 38.804H26.4254V42.872ZM29.3234 48.65C30.1394 48.65 30.7754 48.458 31.2314 48.074C31.6874 47.69 31.9154 47.156 31.9154 46.472C31.9154 45.776 31.6754 45.23 31.1954 44.834C30.7154 44.426 30.0734 44.222 29.2694 44.222H26.4254V48.65H29.3234ZM45.1864 44.114H41.3524V48.002H39.8224V44.114H36.0064V42.728H39.8224V38.822H41.3524V42.728H45.1864V44.114Z" fill="#161B46"/>
</svg>
