<svg width="58" height="72" viewBox="0 0 58 72" fill="none" xmlns="http://www.w3.org/2000/svg">
<path d="M6.20772 29.8197L29.125 0.806649L52.0423 29.8197C61.0187 41.1837 58.6945 57.0822 46.7439 65.8316C36.421 73.3894 21.829 73.3894 11.5061 65.8316C-0.444452 57.0822 -2.76867 41.1837 6.20772 29.8197Z" fill="#F9FCFF" stroke="#E6E8F3"/>
<path d="M26.9414 43.538C27.3974 43.61 27.8114 43.796 28.1834 44.096C28.5674 44.396 28.8674 44.768 29.0834 45.212C29.3114 45.656 29.4254 46.13 29.4254 46.634C29.4254 47.27 29.2634 47.846 28.9394 48.362C28.6154 48.866 28.1414 49.268 27.5174 49.568C26.9054 49.856 26.1794 50 25.3394 50H20.6594V37.454H25.1594C26.0114 37.454 26.7374 37.598 27.3374 37.886C27.9374 38.162 28.3874 38.54 28.6874 39.02C28.9874 39.5 29.1374 40.04 29.1374 40.64C29.1374 41.384 28.9334 42.002 28.5254 42.494C28.1294 42.974 27.6014 43.322 26.9414 43.538ZM22.2974 42.872H25.0514C25.8194 42.872 26.4134 42.692 26.8334 42.332C27.2534 41.972 27.4634 41.474 27.4634 40.838C27.4634 40.202 27.2534 39.704 26.8334 39.344C26.4134 38.984 25.8074 38.804 25.0154 38.804H22.2974V42.872ZM25.1954 48.65C26.0114 48.65 26.6474 48.458 27.1034 48.074C27.5594 47.69 27.7874 47.156 27.7874 46.472C27.7874 45.776 27.5474 45.23 27.0674 44.834C26.5874 44.426 25.9454 44.222 25.1414 44.222H22.2974V48.65H25.1954ZM38.5385 42.71V44.096H31.3565V42.71H38.5385Z" fill="#161B46"/>
</svg>
