<svg width="59" height="72" viewBox="0 0 59 72" fill="none" xmlns="http://www.w3.org/2000/svg">
<path d="M6.45772 29.8197L29.375 0.806649L52.2923 29.8197C61.2687 41.1837 58.9445 57.0822 46.9939 65.8316C36.671 73.3894 22.079 73.3894 11.7561 65.8316C-0.194452 57.0822 -2.51867 41.1837 6.45772 29.8197Z" fill="#F9FCFF" stroke="#E6E8F3"/>
<path d="M25.5049 43.538C25.9609 43.61 26.3749 43.796 26.7469 44.096C27.1309 44.396 27.4309 44.768 27.6469 45.212C27.8749 45.656 27.9889 46.13 27.9889 46.634C27.9889 47.27 27.8269 47.846 27.5029 48.362C27.1789 48.866 26.7049 49.268 26.0809 49.568C25.4689 49.856 24.7429 50 23.9029 50H19.2229V37.454H23.7229C24.5749 37.454 25.3009 37.598 25.9009 37.886C26.5009 38.162 26.9509 38.54 27.2509 39.02C27.5509 39.5 27.7009 40.04 27.7009 40.64C27.7009 41.384 27.4969 42.002 27.0889 42.494C26.6929 42.974 26.1649 43.322 25.5049 43.538ZM20.8609 42.872H23.6149C24.3829 42.872 24.9769 42.692 25.3969 42.332C25.8169 41.972 26.0269 41.474 26.0269 40.838C26.0269 40.202 25.8169 39.704 25.3969 39.344C24.9769 38.984 24.3709 38.804 23.5789 38.804H20.8609V42.872ZM23.7589 48.65C24.5749 48.65 25.2109 48.458 25.6669 48.074C26.1229 47.69 26.3509 47.156 26.3509 46.472C26.3509 45.776 26.1109 45.23 25.6309 44.834C25.1509 44.426 24.5089 44.222 23.7049 44.222H20.8609V48.65H23.7589ZM39.622 44.114H35.788V48.002H34.258V44.114H30.442V42.728H34.258V38.822H35.788V42.728H39.622V44.114Z" fill="#161B46"/>
</svg>
