<svg width="32" height="32" viewBox="0 0 32 32" fill="none" xmlns="http://www.w3.org/2000/svg">
<rect width="32" height="32" rx="16" fill="#0085C8"/>
<g clip-path="url(#clip0_1_4784)">
<path d="M15.9999 22.6667C12.3179 22.6667 9.33325 19.682 9.33325 16C9.33325 12.318 12.3179 9.33337 15.9999 9.33337C19.6819 9.33337 22.6666 12.318 22.6666 16C22.6666 19.682 19.6819 22.6667 15.9999 22.6667ZM12.6666 19.3334H13.9999C13.9999 18.8029 14.2106 18.2942 14.5857 17.9192C14.9608 17.5441 15.4695 17.3334 15.9999 17.3334C16.5304 17.3334 17.0391 17.5441 17.4141 17.9192C17.7892 18.2942 17.9999 18.8029 17.9999 19.3334H19.3333C19.3333 18.4493 18.9821 17.6015 18.3569 16.9764C17.7318 16.3512 16.884 16 15.9999 16C15.1159 16 14.268 16.3512 13.6429 16.9764C13.0178 17.6015 12.6666 18.4493 12.6666 19.3334ZM13.3333 15.3334C13.5985 15.3334 13.8528 15.228 14.0404 15.0405C14.2279 14.8529 14.3333 14.5986 14.3333 14.3334C14.3333 14.0682 14.2279 13.8138 14.0404 13.6263C13.8528 13.4387 13.5985 13.3334 13.3333 13.3334C13.068 13.3334 12.8137 13.4387 12.6261 13.6263C12.4386 13.8138 12.3333 14.0682 12.3333 14.3334C12.3333 14.5986 12.4386 14.8529 12.6261 15.0405C12.8137 15.228 13.068 15.3334 13.3333 15.3334ZM18.6666 15.3334C18.9318 15.3334 19.1862 15.228 19.3737 15.0405C19.5612 14.8529 19.6666 14.5986 19.6666 14.3334C19.6666 14.0682 19.5612 13.8138 19.3737 13.6263C19.1862 13.4387 18.9318 13.3334 18.6666 13.3334C18.4014 13.3334 18.147 13.4387 17.9595 13.6263C17.7719 13.8138 17.6666 14.0682 17.6666 14.3334C17.6666 14.5986 17.7719 14.8529 17.9595 15.0405C18.147 15.228 18.4014 15.3334 18.6666 15.3334Z" fill="white"/>
</g>
<defs>
<clipPath id="clip0_1_4784">
<rect width="16" height="16" fill="white" transform="translate(8 8)"/>
</clipPath>
</defs>
</svg>
