<svg width="18" height="18" viewBox="0 0 18 18" fill="none" xmlns="http://www.w3.org/2000/svg">
<g clip-path="url(#clip0_1_4708)">
<path d="M15.001 1.5C15.415 1.5 15.751 1.836 15.751 2.25V5.06775L14.251 6.56775V3H3.75098V15H14.251V12.9315L15.751 11.4315V15.75C15.751 16.164 15.415 16.5 15.001 16.5H3.00098C2.58698 16.5 2.25098 16.164 2.25098 15.75V2.25C2.25098 1.836 2.58698 1.5 3.00098 1.5H15.001ZM16.3345 6.606L17.395 7.6665L11.5615 13.5L10.4995 13.4985L10.501 12.4395L16.3345 6.606ZM9.75098 9V10.5H6.00098V9H9.75098ZM12.001 6V7.5H6.00098V6H12.001Z" fill="#00AEEF"/>
</g>
<defs>
<clipPath id="clip0_1_4708">
<rect width="18" height="18" fill="white" transform="translate(0.000976562)"/>
</clipPath>
</defs>
</svg>
