<svg width="58" height="72" viewBox="0 0 58 72" fill="none" xmlns="http://www.w3.org/2000/svg">
<path d="M6.20772 29.8197L29.125 0.806649L52.0423 29.8197C61.0187 41.1837 58.6945 57.0822 46.7439 65.8316C36.421 73.3894 21.829 73.3894 11.5061 65.8316C-0.444452 57.0822 -2.76867 41.1837 6.20772 29.8197Z" fill="#F9FCFF" stroke="#E6E8F3"/>
<path d="M19.7576 43.358C19.7576 41.294 20.0936 39.686 20.7656 38.534C21.4376 37.37 22.6136 36.788 24.2936 36.788C25.9616 36.788 27.1316 37.37 27.8036 38.534C28.4756 39.686 28.8116 41.294 28.8116 43.358C28.8116 45.458 28.4756 47.09 27.8036 48.254C27.1316 49.418 25.9616 50 24.2936 50C22.6136 50 21.4376 49.418 20.7656 48.254C20.0936 47.09 19.7576 45.458 19.7576 43.358ZM27.1916 43.358C27.1916 42.314 27.1196 41.432 26.9756 40.712C26.8436 39.98 26.5616 39.392 26.1296 38.948C25.7096 38.504 25.0976 38.282 24.2936 38.282C23.4776 38.282 22.8536 38.504 22.4216 38.948C22.0016 39.392 21.7196 39.98 21.5756 40.712C21.4436 41.432 21.3776 42.314 21.3776 43.358C21.3776 44.438 21.4436 45.344 21.5756 46.076C21.7196 46.808 22.0016 47.396 22.4216 47.84C22.8536 48.284 23.4776 48.506 24.2936 48.506C25.0976 48.506 25.7096 48.284 26.1296 47.84C26.5616 47.396 26.8436 46.808 26.9756 46.076C27.1196 45.344 27.1916 44.438 27.1916 43.358ZM38.1703 42.71V44.096H30.9883V42.71H38.1703Z" fill="#161B46"/>
</svg>
