<svg width="59" height="72" viewBox="0 0 59 72" fill="none" xmlns="http://www.w3.org/2000/svg">
<path d="M6.45772 29.8197L29.375 0.806649L52.2923 29.8197C61.2687 41.1837 58.9445 57.0822 46.9939 65.8316C36.671 73.3894 22.079 73.3894 11.7561 65.8316C-0.194452 57.0822 -2.51867 41.1837 6.45772 29.8197Z" fill="#F9FCFF" stroke="#E6E8F3"/>
<path d="M18.8211 43.358C18.8211 41.294 19.1571 39.686 19.8291 38.534C20.5011 37.37 21.6771 36.788 23.3571 36.788C25.0251 36.788 26.1951 37.37 26.8671 38.534C27.5391 39.686 27.8751 41.294 27.8751 43.358C27.8751 45.458 27.5391 47.09 26.8671 48.254C26.1951 49.418 25.0251 50 23.3571 50C21.6771 50 20.5011 49.418 19.8291 48.254C19.1571 47.09 18.8211 45.458 18.8211 43.358ZM26.2551 43.358C26.2551 42.314 26.1831 41.432 26.0391 40.712C25.9071 39.98 25.6251 39.392 25.1931 38.948C24.7731 38.504 24.1611 38.282 23.3571 38.282C22.5411 38.282 21.9171 38.504 21.4851 38.948C21.0651 39.392 20.7831 39.98 20.6391 40.712C20.5071 41.432 20.4411 42.314 20.4411 43.358C20.4411 44.438 20.5071 45.344 20.6391 46.076C20.7831 46.808 21.0651 47.396 21.4851 47.84C21.9171 48.284 22.5411 48.506 23.3571 48.506C24.1611 48.506 24.7731 48.284 25.1931 47.84C25.6251 47.396 25.9071 46.808 26.0391 46.076C26.1831 45.344 26.2551 44.438 26.2551 43.358ZM39.7538 44.114H35.9198V48.002H34.3898V44.114H30.5738V42.728H34.3898V38.822H35.9198V42.728H39.7538V44.114Z" fill="#161B46"/>
</svg>
